<?xml version="1.0" encoding="iso-8859-1"?>
<!-- Generator: Adobe Illustrator 19.1.1, SVG Export Plug-In . SVG Version: 6.00 Build 0)  -->
<svg version="1.1" id="Layer_1" xmlns="http://www.w3.org/2000/svg" xmlns:xlink="http://www.w3.org/1999/xlink" x="0px" y="0px"
	 viewBox="0 0 48 48" style="enable-background:new 0 0 48 48;" xml:space="preserve">
<rect x="16" y="16" style="fill:#BF360C;" width="16" height="18"/>
<path style="fill:#FF9800;" d="M24,38c-2.193,0-5-6-5-6v-6h10v6C29,32,26.192,38,24,38"/>
<path style="fill:#FFB74D;" d="M33,15c0-7.635-18-4.971-18,0v7c0,4.971,4.028,9,9,9c4.971,0,9-4.029,9-9V15z"/>
<path style="fill:#FF5722;" d="M24,5C17.925,5,9,8.404,9,28.286L16,33V20l12-7l4,5v15l7-6c0-4.025-0.674-20-11-20l-1-2H24z"/>
<path style="fill:#784719;" d="M27,22c0,0.551,0.448,1,1,1s1-0.449,1-1s-0.448-1-1-1S27,21.449,27,22"/>
<path style="fill:#784719;" d="M19,22c0,0.551,0.448,1,1,1s1-0.449,1-1s-0.448-1-1-1S19,21.449,19,22"/>
<rect x="16" y="16" style="fill:#BF360C;" width="16" height="18"/>
<path style="fill:#FF9800;" d="M24,38c-2.193,0-5-6-5-6v-6h10v6C29,32,26.192,38,24,38"/>
<path style="fill:#FFB74D;" d="M33,15c0-7.635-18-4.971-18,0v7c0,4.971,4.028,9,9,9c4.971,0,9-4.029,9-9V15z"/>
<path style="fill:#FF5722;" d="M24,5C17.925,5,9,8.404,9,28.286L16,33V20l12-7l4,5v15l7-6c0-4.025-0.674-20-11-20l-1-2H24z"/>
<path style="fill:#784719;" d="M27,22c0,0.551,0.448,1,1,1s1-0.449,1-1s-0.448-1-1-1S27,21.449,27,22"/>
<path style="fill:#784719;" d="M19,22c0,0.551,0.448,1,1,1s1-0.449,1-1s-0.448-1-1-1S19,21.449,19,22"/>
<rect x="16" y="16" style="fill:#BF360C;" width="16" height="18"/>
<path style="fill:#FF9800;" d="M24,39c-2.193,0-5-6-5-6v-6h10v6C29,33,26.192,39,24,39"/>
<path style="fill:#FFB74D;" d="M33,15c0-7.635-18-4.971-18,0v7c0,4.971,4.028,9,9,9c4.971,0,9-4.029,9-9V15z"/>
<path style="fill:#FF5722;" d="M24,5C17.925,5,9,8.404,9,28.286L16,34V20l12-7l4,5v16l7-7c0-4.025-0.674-20-11-20l-1-2H24z"/>
<path style="fill:#784719;" d="M27,22c0-0.551,0.448-1,1-1s1,0.449,1,1s-0.448,1-1,1S27,22.551,27,22 M19,22c0,0.551,0.448,1,1,1
	s1-0.449,1-1s-0.448-1-1-1S19,21.449,19,22"/>
<path style="fill:#CFD8DC;" d="M29,33L29,33l-5,2l-5-2c0,0-11,1.986-11,13h32C40,35.025,29,33,29,33"/>
<polygon style="fill:#3F51B5;" points="23,38 22,46 26,46 25,38 26,37 24,35 22,37 "/>
<rect x="29" y="40" style="fill:#FFFFFF;" width="7" height="4"/>
<polygon style="fill:#FFFFFF;" points="24,45 19,33 24,34 29,33 "/>
<polygon style="fill:#D32F2F;" points="23,37 22.333,41.465 24,45.465 25.667,41.465 25,37 26,36 24,34 22,36 "/>
<path style="fill:#3F51B5;" d="M29,33L29,33l-5,12l-5-12c0,0-11,1.986-11,13h32C40,35.025,29,33,29,33"/>
</svg>
